<?xml version="1.0" encoding="utf-8"?>
<!-- Generator: Adobe Illustrator 25.0.0, SVG Export Plug-In . SVG Version: 6.00 Build 0)  -->
<svg version="1.1" id="Calque_1" xmlns="http://www.w3.org/2000/svg" xmlns:xlink="http://www.w3.org/1999/xlink" x="0px" y="0px"
	 viewBox="0 0 700 700" style="enable-background:new 0 0 700 700;" xml:space="preserve">
<style type="text/css">
	.st0{fill-rule:evenodd;clip-rule:evenodd;}
</style>
<g>
	<path class="st0" d="M350,518.2c28.6,0,60.6,2,87.3,5.8c13.4,1.9,25.4,4.1,34.9,7c8.9,2.8,5.9,4.2,0,5.9
		c-9.5,2.7-21.5,5.1-34.9,6.9c-26.7,3.8-58.7,5.8-87.3,5.8c-28.6,0-60.5-2-87.2-5.8c-13.4-1.9-25.4-4.2-34.9-6.9
		c-6.8-2.1-5.2-3.6,0-5.9c9.5-2.7,21.5-5,34.9-7C289.4,520.2,321.4,518.2,350,518.2z M349.8,150.4c8.9,0,18,1.3,27,4
		c24,7.2,43,23.1,54.6,43.3c0.2,1.6,1,3.1,2.2,4.2c9.8,19.3,13.1,42.1,7.6,64.8c-2.3,9.3,11.6,12.6,13.7,3.3
		c5.8-24,3.1-48.2-6.4-69.3c10.2-3.3,20.8-5.1,31.6-5.2c56.8,0,102.7,46,102.7,102.8c-0.1,48.4-33.6,89.6-80,100.1v-32.1
		c0.1-4-3.2-7.2-7.1-7.2c-3.9,0.1-7.1,3.3-7,7.2v155.5c-3.8-1.6-8.1-3.1-12.8-4.4c-10.4-3-22.9-5.3-36.7-7.3
		c-27.6-3.9-60-5.9-89.2-5.9c-29.2,0-61.7,2-89.2,5.9c-13.8,1.9-26.3,4.3-36.7,7.3c-4.8,1.3-9,2.8-12.8,4.4l0-155.5
		c0.1-4-3.2-7.2-7.1-7.2c-3.9,0.1-7,3.3-7,7.2v32.1c-46.4-10.5-79.9-51.7-79.9-100c0-56.9,45.9-102.9,102.7-102.9
		c10.7,0,21.3,1.8,31.5,5.2c-1.1,2.5-2.1,5-3.1,7.6c-3.3,9,10.3,13.8,13.3,4.7C275.2,174.6,311.1,150.5,349.8,150.4L349.8,150.4z
		 M349.8,136.3c-3.4,0-6.8,0.2-10.2,0.5c-33.3,3.2-63.9,22-81.7,51.1c-12.3-4.3-25.1-6.6-38.1-6.6c-64.4,0-116.8,52.5-116.8,117
		c0.1,55.8,40,102.6,94,113.6v122c-0.1,3.1,2.1,5.4,4.7,7c6,3.6,13,7,22.2,9.6c10.4,2.9,22.9,5.3,36.7,7.3c27.5,3.9,60,6,89.2,6
		c29.2,0,61.7-2,89.2-6c13.8-1.9,26.3-4.3,36.7-7.3c9.6-2.7,16.9-6.2,22.9-10.1c3-2,4-3.8,4-6.4l0-122c54.1-10.9,94-57.8,94.1-113.6
		c0-64.5-52.3-116.9-116.8-116.9c-13.1,0-26,2.4-38.2,6.7c-13.4-22-34.6-39.2-61.1-47.1C370.6,137.8,360.1,136.3,349.8,136.3
		L349.8,136.3z"/>
	<path class="st0" d="M350,313.1c-28.8,0-58.3,3.6-84.5,9.9c-3.8,0.9-6.1,4.7-5.2,8.5c0.9,3.8,4.7,6.2,8.5,5.3
		c25-6,53.6-9.5,81.2-9.5c27.6,0,56.2,3.5,81.3,9.5c3.8,0.9,7.6-1.5,8.5-5.3c0.9-3.8-1.5-7.6-5.2-8.5
		C408.3,316.7,378.8,313.1,350,313.1L350,313.1z"/>
</g>
</svg>
