<?xml version="1.0" encoding="utf-8"?>
<!-- Generator: Adobe Illustrator 25.0.0, SVG Export Plug-In . SVG Version: 6.00 Build 0)  -->
<svg version="1.1" id="Calque_1" xmlns="http://www.w3.org/2000/svg" xmlns:xlink="http://www.w3.org/1999/xlink" x="0px" y="0px"
	 viewBox="0 0 700 700" style="enable-background:new 0 0 700 700;" xml:space="preserve">
<g>
	<path d="M350,504c-85.1,0-154-69.4-154-154s68.9-154,154-154s154,68.9,154,154S435.1,504,350,504z M350,207.2
		c-79,0-142.8,64.4-142.8,142.8S271,492.8,350,492.8S492.8,429,492.8,350S429,207.2,350,207.2L350,207.2z"/>
	<path d="M350,245.3c-3.4,0-5.6-2.8-5.6-5.6v-15.1c0-3.4,2.8-5.6,5.6-5.6s5.6,2.8,5.6,5.6v15.1C355.6,242.5,353.4,245.3,350,245.3z"
		/>
	<path d="M350,481c-3.4,0-5.6-2.8-5.6-5.6v-15.1c0-3.4,2.8-5.6,5.6-5.6s5.6,2.8,5.6,5.6v15.1C355.6,478.8,353.4,481,350,481z"/>
	<path d="M475.4,355.6h-15.1c-3.4,0-5.6-2.8-5.6-5.6s2.8-5.6,5.6-5.6h15.1c3.4,0,5.6,2.8,5.6,5.6C481,352.8,478.8,355.6,475.4,355.6
		z"/>
	<path d="M239.1,355.6H224c-3.4,0-5.6-2.8-5.6-5.6s2.8-5.6,5.6-5.6h15.1c3.4,0,5.6,2.8,5.6,5.6C244.7,352.8,242.5,355.6,239.1,355.6
		z"/>
	<path d="M350,355c-3.4,0-5.6-2.8-5.6-5.6v-84c0-3.4,2.8-5.6,5.6-5.6s5.6,2.8,5.6,5.6v84C355.6,352.2,353.4,355,350,355z"/>
	<path d="M350,355.6h-1.7c-2.8-1.1-4.5-3.9-3.9-7.3l14-45.4c1.1-2.8,3.9-4.5,7.3-3.9c2.8,1.1,4.5,3.9,3.9,7.3l-14,45.4
		C354.5,353.9,352.2,355.6,350,355.6L350,355.6z"/>
</g>
</svg>
