<svg width="200" height="200" viewBox="0 0 200 200" fill="none" xmlns="http://www.w3.org/2000/svg">
<path d="M191.666 91.6665H175V74.9998H158.333V91.6665H141.666V108.333H158.333V125H175V108.333H191.666M66.6663 91.6665V111.666H99.9997C98.333 120 89.9997 136.666 66.6663 136.666C46.6663 136.666 30.833 120 30.833 99.9998C30.833 79.9998 46.6663 63.3332 66.6663 63.3332C78.333 63.3332 85.833 68.3332 89.9997 72.4998L105.833 57.4998C95.833 47.4998 82.4997 41.6665 66.6663 41.6665C34.1663 41.6665 8.33301 67.4998 8.33301 99.9998C8.33301 132.5 34.1663 158.333 66.6663 158.333C99.9997 158.333 122.5 135 122.5 101.667C122.5 97.4998 122.5 94.9998 121.666 91.6665H66.6663Z" fill="#BCBCBC"/>
</svg>
