<svg width="200" height="202" viewBox="0 0 200 202" fill="none" xmlns="http://www.w3.org/2000/svg">
<path d="M100 63.125C92.5832 63.125 85.333 65.3463 79.1661 69.5081C72.9993 73.6698 68.1928 79.5851 65.3545 86.5059C62.5162 93.4266 61.7736 101.042 63.2206 108.389C64.6675 115.736 68.239 122.485 73.4835 127.782C78.728 133.079 85.4098 136.686 92.6841 138.147C99.9584 139.609 107.498 138.859 114.351 135.992C121.203 133.125 127.06 128.271 131.18 122.042C135.301 115.814 137.5 108.491 137.5 101C137.5 90.9549 133.549 81.3213 126.517 74.2183C119.484 67.1154 109.946 63.125 100 63.125ZM100 126.25C95.0555 126.25 90.222 124.769 86.1107 121.995C81.9995 119.22 78.7952 115.277 76.903 110.663C75.0108 106.049 74.5157 100.972 75.4804 96.074C76.445 91.1759 78.826 86.6768 82.3223 83.1456C85.8186 79.6143 90.2732 77.2094 95.1227 76.2352C99.9723 75.2609 104.999 75.7609 109.567 77.672C114.135 79.5832 118.04 82.8195 120.787 86.9719C123.534 91.1242 125 96.006 125 101C124.979 107.69 122.339 114.101 117.655 118.831C112.971 123.562 106.624 126.229 100 126.25ZM134.375 22.0938H65.625C54.0218 22.0938 42.8938 26.7492 34.6891 35.036C26.4844 43.3227 21.875 54.562 21.875 66.2812V135.719C21.875 147.438 26.4844 158.677 34.6891 166.964C42.8938 175.251 54.0218 179.906 65.625 179.906H134.375C145.978 179.906 157.106 175.251 165.311 166.964C173.516 158.677 178.125 147.438 178.125 135.719V66.2812C178.125 54.562 173.516 43.3227 165.311 35.036C157.106 26.7492 145.978 22.0938 134.375 22.0938ZM165.625 135.719C165.625 139.864 164.817 143.968 163.246 147.797C161.676 151.627 159.374 155.106 156.472 158.037C153.57 160.968 150.125 163.293 146.334 164.879C142.542 166.465 138.479 167.281 134.375 167.281H65.625C61.5212 167.281 57.4576 166.465 53.6661 164.879C49.8747 163.293 46.4297 160.968 43.5279 158.037C40.6261 155.106 38.3242 151.627 36.7538 147.797C35.1833 143.968 34.375 139.864 34.375 135.719V66.2812C34.375 57.9104 37.6674 49.8823 43.5279 43.9632C49.3884 38.0441 57.337 34.7188 65.625 34.7188H134.375C138.479 34.7188 142.542 35.5351 146.334 37.1213C150.125 38.7075 153.57 41.0323 156.472 43.9632C159.374 46.894 161.676 50.3735 163.246 54.2028C164.817 58.0321 165.625 62.1364 165.625 66.2812V135.719ZM150 59.9688C150 61.8415 149.45 63.6722 148.42 65.2293C147.39 66.7864 145.926 68.0001 144.213 68.7167C142.5 69.4334 140.615 69.6209 138.796 69.2556C136.977 68.8902 135.307 67.9884 133.996 66.6642C132.685 65.3399 131.792 63.6528 131.43 61.816C131.068 59.9793 131.254 58.0754 131.964 56.3452C132.673 54.615 133.875 53.1362 135.417 52.0958C136.958 51.0553 138.771 50.5 140.625 50.5C143.111 50.5 145.496 51.4976 147.254 53.2733C149.012 55.0491 150 57.4575 150 59.9688Z" fill="#BCBCBC"/>
</svg>
