<?xml version="1.0" encoding="utf-8"?>
<!-- Generator: Adobe Illustrator 25.0.0, SVG Export Plug-In . SVG Version: 6.00 Build 0)  -->
<svg version="1.1" id="Calque_1" xmlns="http://www.w3.org/2000/svg" xmlns:xlink="http://www.w3.org/1999/xlink" x="0px" y="0px"
	 viewBox="0 0 700 700" style="enable-background:new 0 0 700 700;" xml:space="preserve">
<style type="text/css">
	.st0{fill-rule:evenodd;clip-rule:evenodd;fill:#F9B129;}
</style>
<g>
	<path class="st0" d="M350,81.6C201.8,81.6,81.6,201.9,81.6,350S201.8,618.4,350,618.4S618.4,498.1,618.4,350S498.2,81.6,350,81.6
		L350,81.6z M350,130.1c121.4,0,219.9,98.5,219.9,219.9S471.4,569.9,350,569.9S130.1,471.4,130.1,350S228.6,130.1,350,130.1
		L350,130.1z"/>
	<path class="st0" d="M373.8,204.2c0-12.3-10-22.3-22.3-22.3h-3.2c-12.3,0-22.3,10-22.3,22.3v144.2c0,12.3,10,22.3,22.3,22.3h3.2
		c12.3,0,22.3-10,22.3-22.3V204.2L373.8,204.2z"/>
	<path class="st0" d="M361.1,329.1c-10.7-6.1-24.3-2.4-30.4,8.3l-1.6,2.8c-6.1,10.7-2.4,24.3,8.3,30.4l78.5,44.8
		c10.6,6.1,24.3,2.4,30.4-8.3l1.6-2.8c6.1-10.7,2.3-24.3-8.3-30.4L361.1,329.1L361.1,329.1z"/>
</g>
</svg>
