<?xml version="1.0" encoding="utf-8"?>
<!-- Generator: Adobe Illustrator 25.0.0, SVG Export Plug-In . SVG Version: 6.00 Build 0)  -->
<svg version="1.1" id="Calque_1" xmlns="http://www.w3.org/2000/svg" xmlns:xlink="http://www.w3.org/1999/xlink" x="0px" y="0px"
	 viewBox="0 0 700 700" style="enable-background:new 0 0 700 700;" xml:space="preserve">
<style type="text/css">
	.st0{fill-rule:evenodd;clip-rule:evenodd;fill:#F9B129;}
</style>
<g>
	<path class="st0" d="M143.4,108.4h94.1c4.8,0,9.1,2.9,10.8,7.3l35.1,87.7c1.7,4.3,0.7,9.3-2.6,12.6c-12.4,12.4-32.6,32.6-45.9,45.9
		c-11.6,11.6-13.6,29.9-4.6,43.7c0,0,0,0.1,0.1,0.1c13.9,21,40.7,58.6,72.9,90.9c32.2,32.2,69.9,59,90.8,73c0,0,0.1,0.1,0.1,0.1
		c13.9,9,32.1,7,43.8-4.6c13.3-13.3,33.5-33.5,45.9-45.9c3.3-3.3,8.2-4.3,12.6-2.6l87.7,35.1c4.4,1.8,7.3,6.1,7.3,10.8v94.1
		c0,10.5-4.7,20.4-12.8,27.1c-8.1,6.6-18.8,9.3-29,7.3c-67.7-13.5-186.5-50.6-288.2-152.4c-101.8-101.8-139-220.6-152.4-288.2
		c-2-10.3,0.6-20.9,7.3-29C123,113.1,132.9,108.4,143.4,108.4L143.4,108.4z"/>
</g>
</svg>
