<?xml version="1.0" encoding="utf-8"?>
<!-- Generator: Adobe Illustrator 25.0.0, SVG Export Plug-In . SVG Version: 6.00 Build 0)  -->
<svg version="1.1" id="Calque_1" xmlns="http://www.w3.org/2000/svg" xmlns:xlink="http://www.w3.org/1999/xlink" x="0px" y="0px"
	 viewBox="0 0 700 700" style="enable-background:new 0 0 700 700;" xml:space="preserve">
<g>
	<path d="M251.7,442.9h-7c-5.8,0-10.5,4.7-10.5,10.5s4.7,10.5,10.5,10.5h7c5.8,0,10.5-4.7,10.5-10.5
		C262.2,447.6,257.5,442.9,251.7,442.9z"/>
	<path d="M408.9,282.9c-5.2-2.6-11.5-0.5-14.1,4.7c-2.6,5.2-0.5,11.5,4.7,14.1c1,0.5,1.9,1,2.9,1.5c1.6,0.9,3.3,1.3,5,1.3
		c3.7,0,7.4-2,9.3-5.5c2.7-5.1,0.8-11.5-4.3-14.2C411.1,284.1,410,283.5,408.9,282.9L408.9,282.9z"/>
	<path d="M442.1,306.6c-4.1-4.1-10.8-4-14.8,0.2s-4,10.8,0.2,14.8c4.9,4.8,9.4,10,13.3,15.6c2,2.9,5.3,4.5,8.6,4.5
		c2.1,0,4.2-0.6,6-1.9c4.7-3.3,5.9-9.9,2.5-14.6C453.2,318.5,447.9,312.3,442.1,306.6L442.1,306.6z"/>
	<path d="M599.6,390.4H185.4c5.4-86.1,77.2-154.5,164.6-154.5c62.2,0,118.4,34.4,146.9,89.7c2.6,5.2,9,7.2,14.1,4.5
		c5.2-2.6,7.2-9,4.5-14.1c-15.4-30-38.7-55.2-67.3-73.1c-26.5-16.5-56.6-26-87.8-27.7v-15h18.4c5.8,0,10.5-4.7,10.5-10.5
		s-4.7-10.5-10.5-10.5h-57.7c-5.8,0-10.5,4.7-10.5,10.5s4.7,10.5,10.5,10.5h18.4v15c-45.7,2.5-88.4,21.5-121,54.2
		c-32.6,32.6-51.6,75.3-54.2,121l-63.9,0c-5.8,0-10.5,4.7-10.5,10.5s4.7,10.5,10.5,10.5h12.8v2.4c0,28.1,34,50.1,77.4,50.1h20
		c5.8,0,10.5-4.7,10.5-10.5s-4.7-10.5-10.5-10.5l-20,0c-33.2,0-56.4-15.3-56.4-29.1v-2.4h431.5v2.4c0,13.7-23.2,29.1-56.4,29.1
		H285.8c-5.8,0-10.5,4.7-10.5,10.5s4.7,10.5,10.5,10.5h53.7v35.8h-59.3c-5.8,0-10.5,4.7-10.5,10.5c0,5.8,4.7,10.5,10.5,10.5h139.6
		c5.8,0,10.5-4.7,10.5-10.5c0-5.8-4.7-10.5-10.5-10.5h-59.3v-35.8h148.9c43.4,0,77.4-22,77.4-50.1v-2.4h12.8
		c5.8,0,10.5-4.7,10.5-10.5S605.4,390.4,599.6,390.4L599.6,390.4z"/>
	<path d="M508.6,355.3c0.3,1.1,0.6,2.2,0.9,3.3c1.2,4.7,5.5,7.8,10.1,7.8c0.9,0,1.8-0.1,2.7-0.4c5.6-1.5,8.9-7.2,7.5-12.8
		c-0.3-1.2-0.7-2.5-1-3.7c-1.6-5.6-7.4-8.8-13-7.2C510.2,343.9,507,349.7,508.6,355.3L508.6,355.3z"/>
</g>
</svg>
