<?xml version="1.0" encoding="utf-8"?>
<!-- Generator: Adobe Illustrator 25.0.0, SVG Export Plug-In . SVG Version: 6.00 Build 0)  -->
<svg version="1.1" id="Calque_1" xmlns="http://www.w3.org/2000/svg" xmlns:xlink="http://www.w3.org/1999/xlink" x="0px" y="0px"
	 viewBox="0 0 700 700" style="enable-background:new 0 0 700 700;" xml:space="preserve">
<style type="text/css">
	.st0{fill:#F9B129;}
</style>
<g>
	<path class="st0" d="M299.3,238.3c-0.1-19.3-8-37.7-22-51l-61.6-61.6c-14.5-15.6-35.4-23.5-56.7-21.7c-13.6,1.5-25.7,9.4-32.5,21.2
		c-25.2,44.1-34,98-25.3,155.9c11.1,74,50.1,147.7,109.9,207.6c59.9,59.8,133.6,98.8,207.6,110c57.9,8.7,111.8-0.1,155.9-25.3v0
		c11.8-6.8,19.7-18.9,21.2-32.5c1.9-21.2-6.1-42.1-21.7-56.7l-61.6-61.6c-13.3-14-31.7-21.9-51-22c-12.6,0.1-24.6,5.4-33.1,14.7
		l-38.4,42.9h0c-64.3-32.1-116.4-84.2-148.5-148.5l42.9-38.4C293.9,262.9,299.2,250.9,299.3,238.3L299.3,238.3z M269.7,254.7
		l-55.3,49.5l3.4,7.5C235.1,349,258.9,383,288,412c29,29.1,62.9,52.9,100.2,70.3l7.5,3.4l49.5-55.3h0c4.4-4.7,10.6-7.3,17-7.2
		c13.1,0.3,25.5,5.9,34.5,15.5l61.6,61.6c10.5,9.7,16.2,23.6,15.3,37.9c-0.6,6.7-4.4,12.6-10.2,16c-39.7,22.7-88.6,30.5-141.4,22.6
		C352.8,566.2,283.6,529.4,227,473c-56.4-56.5-93.2-125.8-103.6-195.1c-7.9-52.9-0.1-101.8,22.6-141.4h0c3.4-5.8,9.4-9.5,16-10.2
		c14.3-0.9,28.2,4.8,37.9,15.3l61.6,61.6c9.6,9,15.1,21.4,15.5,34.5C276.9,244.1,274.3,250.3,269.7,254.7L269.7,254.7z"/>
	<path class="st0" d="M352.8,98c-6.2,0-11.2,5-11.2,11.2c0,6.2,5,11.2,11.2,11.2c60.1,0.1,117.8,24,160.3,66.5
		c42.5,42.5,66.4,100.2,66.5,160.3c0,6.2,5,11.2,11.2,11.2c6.2,0,11.2-5,11.2-11.2c-0.1-66.1-26.4-129.4-73.1-176.1
		C482.2,124.3,418.9,98.1,352.8,98L352.8,98z"/>
	<path class="st0" d="M506.8,347.2c0,6.2,5,11.2,11.2,11.2c6.2,0,11.2-5,11.2-11.2c-0.1-46.8-18.7-91.6-51.7-124.7
		c-33.1-33.1-77.9-51.7-124.7-51.7c-6.2,0-11.2,5-11.2,11.2c0,6.2,5,11.2,11.2,11.2c40.8,0,80,16.3,108.8,45.2
		C490.5,267.2,506.8,306.4,506.8,347.2L506.8,347.2z"/>
</g>
</svg>
