<svg width="200" height="200" viewBox="0 0 200 200" fill="none" xmlns="http://www.w3.org/2000/svg">
<path d="M187.166 50.0002C180.75 52.9168 173.833 54.8335 166.666 55.7502C174 51.3335 179.666 44.3335 182.333 35.9168C175.416 40.0835 167.75 43.0002 159.666 44.6668C153.083 37.5002 143.833 33.3335 133.333 33.3335C113.75 33.3335 97.7497 49.3335 97.7497 69.0835C97.7497 71.9168 98.083 74.6668 98.6663 77.2502C68.9997 75.7502 42.583 61.5002 24.9997 39.9168C21.9163 45.1668 20.1663 51.3335 20.1663 57.8335C20.1663 70.2502 26.4163 81.2502 36.083 87.5002C30.1663 87.5002 24.6663 85.8335 19.833 83.3335V83.5835C19.833 100.917 32.1663 115.417 48.4997 118.667C43.2557 120.102 37.7505 120.302 32.4163 119.25C34.6797 126.354 39.1125 132.57 45.0915 137.025C51.0705 141.479 58.2951 143.948 65.7497 144.084C53.1133 154.087 37.4496 159.494 21.333 159.417C18.4997 159.417 15.6663 159.25 12.833 158.917C28.6663 169.084 47.4997 175 67.6663 175C133.333 175 169.416 120.5 169.416 73.2502C169.416 71.6668 169.416 70.1668 169.333 68.5835C176.333 63.5835 182.333 57.2502 187.166 50.0002Z" fill="#BCBCBC"/>
</svg>
